
            <svg id="trend-chart" width="660" height="400" title="Stack Overflow Trends Chart" version="1.1" xmlns="http://www.w3.org/2000/svg"><g></g><g class="chart-area" transform="translate(100, 20)"><g transform="translate(0,300)" fill="none" font-size="10" font-family="sans-serif" text-anchor="middle"><path class="domain" stroke="#000" d="M0.5,6V0.5H410.5V6"></path><g class="tick" opacity="1" transform="translate(12.346927062836153,0)"><line stroke="#000" y2="6" x1="0.5" x2="0.5"></line><text fill="#000" y="9" x="0.5" dy="0.71em" style="font-size: 12px;">2009</text></g><g class="tick" opacity="1" transform="translate(41.793995146267875,0)"><line stroke="#000" y2="6" x1="0.5" x2="0.5"></line><text fill="#000" y="9" x="0.5" dy="0.71em" style="font-size: 12px;">2010</text></g><g class="tick" opacity="1" transform="translate(71.24106322969959,0)"><line stroke="#000" y2="6" x1="0.5" x2="0.5"></line><text fill="#000" y="9" x="0.5" dy="0.71em" style="font-size: 12px;">2011</text></g><g class="tick" opacity="1" transform="translate(100.68813131313132,0)"><line stroke="#000" y2="6" x1="0.5" x2="0.5"></line><text fill="#000" y="9" x="0.5" dy="0.71em" style="font-size: 12px;">2012</text></g><g class="tick" opacity="1" transform="translate(130.21587629542174,0)"><line stroke="#000" y2="6" x1="0.5" x2="0.5"></line><text fill="#000" y="9" x="0.5" dy="0.71em" style="font-size: 12px;">2013</text></g><g class="tick" opacity="1" transform="translate(159.66294437885347,0)"><line stroke="#000" y2="6" x1="0.5" x2="0.5"></line><text fill="#000" y="9" x="0.5" dy="0.71em" style="font-size: 12px;">2014</text></g><g class="tick" opacity="1" transform="translate(189.1100124622852,0)"><line stroke="#000" y2="6" x1="0.5" x2="0.5"></line><text fill="#000" y="9" x="0.5" dy="0.71em" style="font-size: 12px;">2015</text></g><g class="tick" opacity="1" transform="translate(218.5570805457169,0)"><line stroke="#000" y2="6" x1="0.5" x2="0.5"></line><text fill="#000" y="9" x="0.5" dy="0.71em" style="font-size: 12px;">2016</text></g><g class="tick" opacity="1" transform="translate(248.08482552800734,0)"><line stroke="#000" y2="6" x1="0.5" x2="0.5"></line><text fill="#000" y="9" x="0.5" dy="0.71em" style="font-size: 12px;">2017</text></g><g class="tick" opacity="1" transform="translate(277.5318936114391,0)"><line stroke="#000" y2="6" x1="0.5" x2="0.5"></line><text fill="#000" y="9" x="0.5" dy="0.71em" style="font-size: 12px;">2018</text></g><g class="tick" opacity="1" transform="translate(306.97896169487075,0)"><line stroke="#000" y2="6" x1="0.5" x2="0.5"></line><text fill="#000" y="9" x="0.5" dy="0.71em" style="font-size: 12px;">2019</text></g><g class="tick" opacity="1" transform="translate(336.4260297783025,0)"><line stroke="#000" y2="6" x1="0.5" x2="0.5"></line><text fill="#000" y="9" x="0.5" dy="0.71em" style="font-size: 12px;">2020</text></g><g class="tick" opacity="1" transform="translate(365.953774760593,0)"><line stroke="#000" y2="6" x1="0.5" x2="0.5"></line><text fill="#000" y="9" x="0.5" dy="0.71em" style="font-size: 12px;">2021</text></g><g class="tick" opacity="1" transform="translate(395.4008428440247,0)"><line stroke="#000" y2="6" x1="0.5" x2="0.5"></line><text fill="#000" y="9" x="0.5" dy="0.71em" style="font-size: 12px;">2022</text></g></g><g class="grid-lines" transform="translate(0,300)" fill="none" font-size="10" font-family="sans-serif" text-anchor="middle"><path class="domain" stroke="#000" d="M0.5,-300V0.5H410.5V-300"></path><g class="tick" opacity="1" transform="translate(12.346927062836153,0)"><line stroke="#000" y2="-300" x1="0.5" x2="0.5" style="stroke: #ccc; fill: none;"></line></g><g class="tick" opacity="1" transform="translate(41.793995146267875,0)"><line stroke="#000" y2="-300" x1="0.5" x2="0.5" style="stroke: #ccc; fill: none;"></line></g><g class="tick" opacity="1" transform="translate(71.24106322969959,0)"><line stroke="#000" y2="-300" x1="0.5" x2="0.5" style="stroke: #ccc; fill: none;"></line></g><g class="tick" opacity="1" transform="translate(100.68813131313132,0)"><line stroke="#000" y2="-300" x1="0.5" x2="0.5" style="stroke: #ccc; fill: none;"></line></g><g class="tick" opacity="1" transform="translate(130.21587629542174,0)"><line stroke="#000" y2="-300" x1="0.5" x2="0.5" style="stroke: #ccc; fill: none;"></line></g><g class="tick" opacity="1" transform="translate(159.66294437885347,0)"><line stroke="#000" y2="-300" x1="0.5" x2="0.5" style="stroke: #ccc; fill: none;"></line></g><g class="tick" opacity="1" transform="translate(189.1100124622852,0)"><line stroke="#000" y2="-300" x1="0.5" x2="0.5" style="stroke: #ccc; fill: none;"></line></g><g class="tick" opacity="1" transform="translate(218.5570805457169,0)"><line stroke="#000" y2="-300" x1="0.5" x2="0.5" style="stroke: #ccc; fill: none;"></line></g><g class="tick" opacity="1" transform="translate(248.08482552800734,0)"><line stroke="#000" y2="-300" x1="0.5" x2="0.5" style="stroke: #ccc; fill: none;"></line></g><g class="tick" opacity="1" transform="translate(277.5318936114391,0)"><line stroke="#000" y2="-300" x1="0.5" x2="0.5" style="stroke: #ccc; fill: none;"></line></g><g class="tick" opacity="1" transform="translate(306.97896169487075,0)"><line stroke="#000" y2="-300" x1="0.5" x2="0.5" style="stroke: #ccc; fill: none;"></line></g><g class="tick" opacity="1" transform="translate(336.4260297783025,0)"><line stroke="#000" y2="-300" x1="0.5" x2="0.5" style="stroke: #ccc; fill: none;"></line></g><g class="tick" opacity="1" transform="translate(365.953774760593,0)"><line stroke="#000" y2="-300" x1="0.5" x2="0.5" style="stroke: #ccc; fill: none;"></line></g><g class="tick" opacity="1" transform="translate(395.4008428440247,0)"><line stroke="#000" y2="-300" x1="0.5" x2="0.5" style="stroke: #ccc; fill: none;"></line></g></g><text x="205" y="360" class="axis-label x-axis-label" style="text-anchor: middle; font-weight: bold;">Year</text><g fill="none" font-size="10" font-family="sans-serif" text-anchor="end"><path class="domain" stroke="#000" d="M-6,300.5H0.5V0.5H-6"></path><g class="tick" opacity="1" transform="translate(0,300)"><line stroke="#000" x2="-6" y1="0.5" y2="0.5"></line><text fill="#000" x="-9" y="0.5" dy="0.32em" style="font-size: 12px;">0.00%</text></g><g class="tick" opacity="1" transform="translate(0,266.6666666666667)"><line stroke="#000" x2="-6" y1="0.5" y2="0.5"></line><text fill="#000" x="-9" y="0.5" dy="0.32em" style="font-size: 12px;">0.10%</text></g><g class="tick" opacity="1" transform="translate(0,233.33333333333331)"><line stroke="#000" x2="-6" y1="0.5" y2="0.5"></line><text fill="#000" x="-9" y="0.5" dy="0.32em" style="font-size: 12px;">0.20%</text></g><g class="tick" opacity="1" transform="translate(0,200)"><line stroke="#000" x2="-6" y1="0.5" y2="0.5"></line><text fill="#000" x="-9" y="0.5" dy="0.32em" style="font-size: 12px;">0.30%</text></g><g class="tick" opacity="1" transform="translate(0,166.66666666666666)"><line stroke="#000" x2="-6" y1="0.5" y2="0.5"></line><text fill="#000" x="-9" y="0.5" dy="0.32em" style="font-size: 12px;">0.40%</text></g><g class="tick" opacity="1" transform="translate(0,133.33333333333331)"><line stroke="#000" x2="-6" y1="0.5" y2="0.5"></line><text fill="#000" x="-9" y="0.5" dy="0.32em" style="font-size: 12px;">0.50%</text></g><g class="tick" opacity="1" transform="translate(0,99.99999999999997)"><line stroke="#000" x2="-6" y1="0.5" y2="0.5"></line><text fill="#000" x="-9" y="0.5" dy="0.32em" style="font-size: 12px;">0.60%</text></g><g class="tick" opacity="1" transform="translate(0,66.66666666666663)"><line stroke="#000" x2="-6" y1="0.5" y2="0.5"></line><text fill="#000" x="-9" y="0.5" dy="0.32em" style="font-size: 12px;">0.70%</text></g><g class="tick" opacity="1" transform="translate(0,33.333333333333314)"><line stroke="#000" x2="-6" y1="0.5" y2="0.5"></line><text fill="#000" x="-9" y="0.5" dy="0.32em" style="font-size: 12px;">0.80%</text></g><g class="tick" opacity="1" transform="translate(0,0)"><line stroke="#000" x2="-6" y1="0.5" y2="0.5"></line><text fill="#000" x="-9" y="0.5" dy="0.32em" style="font-size: 12px;">0.90%</text></g></g><g class="grid-lines" fill="none" font-size="10" font-family="sans-serif" text-anchor="end"><path class="domain" stroke="#000" d="M410,300.5H0.5V0.5H410"></path><g class="tick" opacity="1" transform="translate(0,300)"><line stroke="#000" x2="410" y1="0.5" y2="0.5" style="stroke: #ccc; fill: none;"></line></g><g class="tick" opacity="1" transform="translate(0,266.6666666666667)"><line stroke="#000" x2="410" y1="0.5" y2="0.5" style="stroke: #ccc; fill: none;"></line></g><g class="tick" opacity="1" transform="translate(0,233.33333333333331)"><line stroke="#000" x2="410" y1="0.5" y2="0.5" style="stroke: #ccc; fill: none;"></line></g><g class="tick" opacity="1" transform="translate(0,200)"><line stroke="#000" x2="410" y1="0.5" y2="0.5" style="stroke: #ccc; fill: none;"></line></g><g class="tick" opacity="1" transform="translate(0,166.66666666666666)"><line stroke="#000" x2="410" y1="0.5" y2="0.5" style="stroke: #ccc; fill: none;"></line></g><g class="tick" opacity="1" transform="translate(0,133.33333333333331)"><line stroke="#000" x2="410" y1="0.5" y2="0.5" style="stroke: #ccc; fill: none;"></line></g><g class="tick" opacity="1" transform="translate(0,99.99999999999997)"><line stroke="#000" x2="410" y1="0.5" y2="0.5" style="stroke: #ccc; fill: none;"></line></g><g class="tick" opacity="1" transform="translate(0,66.66666666666663)"><line stroke="#000" x2="410" y1="0.5" y2="0.5" style="stroke: #ccc; fill: none;"></line></g><g class="tick" opacity="1" transform="translate(0,33.333333333333314)"><line stroke="#000" x2="410" y1="0.5" y2="0.5" style="stroke: #ccc; fill: none;"></line></g><g class="tick" opacity="1" transform="translate(0,0)"><line stroke="#000" x2="410" y1="0.5" y2="0.5" style="stroke: #ccc; fill: none;"></line></g></g><g class="lines"><path class="line" d="M2.500983864620228,300L4.921290830381739,300L7.425636232454415,300L9.845943198215926,300L12.346927062836153,300L14.847910927456383,300L17.10686409550046,300L19.607847960120687,300L22.024793388429753,300L24.52577725304998,300L26.946084218811492,300L29.447068083431716,300L31.948051948051948,300L34.36835891381346,300L36.87270431588613,300L39.293011281647644,300L41.793995146267875,300L44.2949790108881,300L46.55393217893218,300L49.05155450609996,300L51.47186147186147,300L53.972845336481704,300L56.39315230224321,300L58.89413616686343,300L61.39512003148367,300L63.815426997245176,300L66.3164108618654,300L68.74007936507935,300L71.24106322969959,300L73.74204709431982,300L76.0010002623639,300L78.49862258953168,300L80.91892955529319,300L83.41991341991341,300L85.84022038567494,300L88.34120425029516,300L90.84218811491539,300L93.2624950806769,300L95.76347894529712,300L98.18714744851108,300L100.68813131313132,300L103.18911517775153,300L105.52874524465435,300L108.02636757182212,300L110.44667453758363,300L112.94765840220386,300L115.36796536796538,300L117.8689492325856,300L120.36993309720583,300L122.79024006296734,300L125.29122392758757,300L127.71489243080153,300L130.21587629542174,300L132.71686016004196,300L134.97581332808605,300L137.47343565525384,300L139.89374262101535,300L142.39472648563557,300L144.81503345139708,300L147.3160173160173,300L149.81700118063753,300L152.23730814639904,300L154.73829201101927,300L157.16196051423324,300L159.66294437885347,300L162.16392824347372,300L164.42288141151778,300L166.92050373868557,300L169.34081070444705,300L171.8417945690673,300L174.2621015348288,300L176.76308539944904,300L179.26406926406926,300L181.68437622983078,300L184.185360094451,300L186.60902859766497,300L189.1100124622852,300L191.61099632690542,300L193.8699494949495,300L196.36757182211727,300L198.78787878787878,300L201.288862652499,300L203.70916961826055,300L206.21015348288077,300L208.711137347501,300L211.1314443132625,300L213.63242817788273,300L216.05609668109668,300L218.5570805457169,300L221.05806441033712,300L223.39769447723995,300L225.8953168044077,300L228.31562377016922,300L230.81660763478945,300L233.236914600551,300L235.7378984651712,300L238.23888232979144,300L240.65918929555295,300L243.16017316017317,300L245.58384166338712,300L248.08482552800734,300L250.58580939262757,299.8078958643333L252.84476256067168,299.49916862L255.34238488783944,299.623296831L257.7626918536009,299.63929453233334L260.2636757182212,300L262.68398268398266,299.06410681166665L265.1849665486029,299.051451185L267.68595041322317,299.58485380633334L270.10625737898465,299.60437795366664L272.6072412436049,300L275.03090974681885,299.073958319L277.5318936114391,299.160374725L280.0328774760593,299.3402170686667L282.29183064410336,298.0530163646667L284.78945297127115,298.3423468226667L287.2097599370327,298.79438181933335L289.7107438016529,298.908420878L292.1310507674144,298.732813787L294.6320346320346,299.36043388166667L297.13301849665487,299.532084936L299.55332546241635,299.36867889766665L302.0543093270366,299.09743423133335L304.47797783025055,299.48890933266665L306.97896169487075,299.09517411133334L309.479945559491,299.7693162996667L311.7388987275351,299.37060604366667L314.2365210547029,298.45860472933333L316.6568280204644,293.97098031866665L319.15781188508464,289.304839436L321.5781188508461,289.04354631366664L324.0791027154664,291.127344784L326.5800865800866,285.18266074966664L329.0003935458481,286.06798821766665L331.5013774104683,287.95054722733335L333.9250459136823,285.75911543766665L336.4260297783025,287.5977538156667L338.92701364292276,289.3233808676667L341.26664370982553,287.058199278L343.7642660369933,287.4890759396667L346.18457300275486,283.9438286573333L348.68555686737506,282.372642341L351.1058638331366,287.430564003L353.6068476977568,283.66835880633334L356.10783156237704,284.548091095L358.5281385281385,282.20209872866667L361.0291223927588,279.575010773L363.4527908959727,283.689406144L365.953774760593,279.81632859033334L368.4547586252132,277.778288622L370.71371179325723,278.3293265163333L373.211334120425,281.5032665233333L375.6316410861865,280.2009478483333L378.13262495080676,277.3591387106667L380.55293191656824,282.6971845076667L383.0539157811885,279.72409939166664L385.5548996458087,271.79740583533334L387.97520661157023,277.395161137L390.4761904761905,270.35259238366666L392.8998589794044,271.3488652643333L395.4008428440247,264.74074921166664L397.90182670864493,268.8154753206667L400.160779876689,267.8893252076667L402.6584022038567,265.12142554766666L405.07870916961826,264.77136616666667L407.57969303423846,267.356563767L410,260.82738166033334" data-legend="svelte" style="stroke: rgb(31, 119, 180); fill: none;"></path><path class="line" d="M2.500983864620228,300L4.921290830381739,300L7.425636232454415,300L9.845943198215926,300L12.346927062836153,300L14.847910927456383,300L17.10686409550046,300L19.607847960120687,300L22.024793388429753,300L24.52577725304998,300L26.946084218811492,300L29.447068083431716,300L31.948051948051948,300L34.36835891381346,300L36.87270431588613,300L39.293011281647644,300L41.793995146267875,300L44.2949790108881,300L46.55393217893218,300L49.05155450609996,300L51.47186147186147,300L53.972845336481704,300L56.39315230224321,300L58.89413616686343,300L61.39512003148367,300L63.815426997245176,300L66.3164108618654,300L68.74007936507935,300L71.24106322969959,300L73.74204709431982,300L76.0010002623639,300L78.49862258953168,300L80.91892955529319,300L83.41991341991341,300L85.84022038567494,300L88.34120425029516,300L90.84218811491539,300L93.2624950806769,300L95.76347894529712,300L98.18714744851108,300L100.68813131313132,300L103.18911517775153,300L105.52874524465435,300L108.02636757182212,300L110.44667453758363,300L112.94765840220386,300L115.36796536796538,300L117.8689492325856,300L120.36993309720583,300L122.79024006296734,300L125.29122392758757,300L127.71489243080153,300L130.21587629542174,300L132.71686016004196,300L134.97581332808605,300L137.47343565525384,300L139.89374262101535,300L142.39472648563557,300L144.81503345139708,300L147.3160173160173,300L149.81700118063753,300L152.23730814639904,300L154.73829201101927,300L157.16196051423324,300L159.66294437885347,300L162.16392824347372,300L164.42288141151778,300L166.92050373868557,300L169.34081070444705,300L171.8417945690673,300L174.2621015348288,300L176.76308539944904,300L179.26406926406926,300L181.68437622983078,300L184.185360094451,300L186.60902859766497,300L189.1100124622852,300L191.61099632690542,300L193.8699494949495,300L196.36757182211727,300L198.78787878787878,300L201.288862652499,300L203.70916961826055,300L206.21015348288077,300L208.711137347501,300L211.1314443132625,300L213.63242817788273,300L216.05609668109668,300L218.5570805457169,300L221.05806441033712,300L223.39769447723995,300L225.8953168044077,300L228.31562377016922,300L230.81660763478945,300L233.236914600551,300L235.7378984651712,300L238.23888232979144,300L240.65918929555295,300L243.16017316017317,299.8079854993333L245.58384166338712,299.585305723L248.08482552800734,300L250.58580939262757,300L252.84476256067168,299.49916862L255.34238488783944,299.623296831L257.7626918536009,296.9340035243333L260.2636757182212,297.1686627596667L262.68398268398266,297.37949907266665L265.1849665486029,299.241160948L267.68595041322317,297.301549741L270.10625737898465,298.61532283766667L272.6072412436049,298.40702819166665L275.03090974681885,295.832812435L277.5318936114391,296.6414988993333L280.0328774760593,298.020651206L282.29183064410336,297.2742229103333L284.78945297127115,296.684693645L287.2097599370327,297.99063636566666L289.7107438016529,296.94357845866665L292.1310507674144,293.664068935L294.6320346320346,290.406508225L297.13301849665487,290.407741187L299.55332546241635,289.05710088933336L302.0543093270366,286.2358720253333L304.47797783025055,284.92282530933335L306.97896169487075,276.022113945L309.479945559491,280.853252871L311.7388987275351,275.8732316653333L314.2365210547029,281.50325674833334L316.6568280204644,275.437327224L319.15781188508464,278.85840353599997L321.5781188508461,275.40387947933334L324.0791027154664,276.33958609066667L326.5800865800866,266.90794234099997L329.0003935458481,269.9245459933333L331.5013774104683,271.3541311436667L333.9250459136823,265.9235976543333L336.4260297783025,261.41523409266665L338.92701364292276,252.88361556766665L341.26664370982553,255.782180866L343.7642660369933,250.14028793533333L346.18457300275486,251.10986029333333L348.68555686737506,242.22143878433334L351.1058638331366,243.234805174L353.6068476977568,236.488062024L356.10783156237704,232.72476584433332L358.5281385281385,226.90995211199998L361.0291223927588,209.5820598853333L363.4527908959727,206.151352274L365.953774760593,174.0923354913333L368.4547586252132,176.12034461533332L370.71371179325723,173.36200182866668L373.211334120425,167.81001141866668L375.6316410861865,145.36689648633333L378.13262495080676,142.034450543L380.55293191656824,119.94257628133334L383.0539157811885,115.78602495933333L385.5548996458087,120.35658506899998L387.97520661157023,109.40551653266664L390.4761904761905,115.99783526866665L392.8998589794044,107.98713212199999L395.4008428440247,74.15020440866667L397.90182670864493,77.07937436066663L400.160779876689,54.93311391066666L402.6584022038567,54.16618558299996L405.07870916961826,60.91500504966663L407.57969303423846,62.23885251033332L410,28.589715788666638" data-legend="next.js" style="stroke: rgb(255, 127, 14); fill: none;"></path><path class="line" d="M2.500983864620228,300L4.921290830381739,300L7.425636232454415,300L9.845943198215926,300L12.346927062836153,300L14.847910927456383,300L17.10686409550046,300L19.607847960120687,300L22.024793388429753,300L24.52577725304998,300L26.946084218811492,300L29.447068083431716,300L31.948051948051948,300L34.36835891381346,300L36.87270431588613,300L39.293011281647644,300L41.793995146267875,300L44.2949790108881,300L46.55393217893218,300L49.05155450609996,300L51.47186147186147,300L53.972845336481704,300L56.39315230224321,300L58.89413616686343,300L61.39512003148367,300L63.815426997245176,300L66.3164108618654,300L68.74007936507935,300L71.24106322969959,300L73.74204709431982,300L76.0010002623639,300L78.49862258953168,300L80.91892955529319,300L83.41991341991341,300L85.84022038567494,300L88.34120425029516,300L90.84218811491539,300L93.2624950806769,300L95.76347894529712,300L98.18714744851108,300L100.68813131313132,300L103.18911517775153,300L105.52874524465435,300L108.02636757182212,300L110.44667453758363,300L112.94765840220386,300L115.36796536796538,300L117.8689492325856,300L120.36993309720583,300L122.79024006296734,300L125.29122392758757,300L127.71489243080153,300L130.21587629542174,300L132.71686016004196,300L134.97581332808605,300L137.47343565525384,300L139.89374262101535,300L142.39472648563557,300L144.81503345139708,300L147.3160173160173,300L149.81700118063753,300L152.23730814639904,300L154.73829201101927,300L157.16196051423324,300L159.66294437885347,300L162.16392824347372,300L164.42288141151778,300L166.92050373868557,300L169.34081070444705,300L171.8417945690673,300L174.2621015348288,300L176.76308539944904,300L179.26406926406926,300L181.68437622983078,300L184.185360094451,300L186.60902859766497,300L189.1100124622852,300L191.61099632690542,300L193.8699494949495,300L196.36757182211727,300L198.78787878787878,300L201.288862652499,300L203.70916961826055,300L206.21015348288077,300L208.711137347501,300L211.1314443132625,300L213.63242817788273,300L216.05609668109668,300L218.5570805457169,300L221.05806441033712,300L223.39769447723995,300L225.8953168044077,300L228.31562377016922,300L230.81660763478945,300L233.236914600551,300L235.7378984651712,300L238.23888232979144,300L240.65918929555295,300L243.16017316017317,300L245.58384166338712,300L248.08482552800734,299.80962824233336L250.58580939262757,300L252.84476256067168,299.1652810333333L255.34238488783944,298.30483573866667L257.7626918536009,298.0161199276667L260.2636757182212,297.1686627596667L262.68398268398266,296.81796315966665L265.1849665486029,297.53377308066666L267.68595041322317,296.67883045033335L270.10625737898465,296.04377953566666L272.6072412436049,295.021963099L275.03090974681885,292.36015613066667L277.5318936114391,292.86318516066666L280.0328774760593,291.64274953566667L282.29183064410336,293.380255639L284.78945297127115,293.36938729L287.2097599370327,287.7428818293333L289.7107438016529,285.5911555893333L292.1310507674144,280.14741599633334L294.6320346320346,280.38663903766667L297.13301849665487,275.9023742013333L299.55332546241635,274.957596266L302.0543093270366,280.82047741233333L304.47797783025055,274.7010119596667L306.97896169487075,269.68833272266664L309.479945559491,273.010007059L311.7388987275351,265.173534404L314.2365210547029,269.17209458033335L316.6568280204644,271.41798076966666L319.15781188508464,267.91451830766664L321.5781188508461,266.012633462L324.0791027154664,253.41856011599998L326.5800865800866,260.48709533233335L329.0003935458481,257.76167856433335L331.5013774104683,264.3063380123333L333.9250459136823,259.3117583933333L336.4260297783025,253.14706996966666L338.92701364292276,252.18731431999998L341.26664370982553,258.801934368L343.7642660369933,255.475829079L346.18457300275486,255.980833622L348.68555686737506,258.673639266L351.1058638331366,248.30312614066668L353.6068476977568,257.809926916L356.10783156237704,245.56173631933333L358.5281385281385,249.45396038899997L361.0291223927588,249.43569740133333L363.4527908959727,251.06821843166665L365.953774760593,246.65743984566666L368.4547586252132,241.50836890099998L370.71371179325723,241.08285646566665L373.211334120425,243.03006089133333L375.6316410861865,246.11650363799998L378.13262495080676,223.22926344366664L380.55293191656824,227.2741036333333L383.0539157811885,239.17229817466665L385.5548996458087,225.10907768066664L387.97520661157023,230.04397236033333L390.4761904761905,234.11687196333332L392.8998589794044,232.64470079699998L395.4008428440247,245.20521836933332L397.90182670864493,249.08151829666667L400.160779876689,244.698282302L402.6584022038567,247.32132548233332L405.07870916961826,241.75532539533333L407.57969303423846,250.060414718L410,241.707413185" data-legend="nuxt.js" style="stroke: rgb(44, 160, 44); fill: none;"></path></g></g><g transform="translate(20, 150)"><text transform="rotate(-90)" x="-50" y="0" dy="1em" class="axis-label y-axis-label" style="text-anchor: middle; font-weight: bold;">% of Stack Overflow questions that month</text></g><g class="legend" transform="translate(530, 30)" style="font-size: 12px;"><text class="legend-title" style="font-weight: bold;">Tag</text><g class="legend-items" transform="translate(0,20)"><text y="0em" x="1em">next.js</text><text y="1em" x="1em">nuxt.js</text><text y="2em" x="1em">svelte</text><circle cy="-0.25em" cx="0" r="0.4em" style="fill: rgb(255, 127, 14);"></circle><circle cy="0.75em" cx="0" r="0.4em" style="fill: rgb(44, 160, 44);"></circle><circle cy="1.75em" cx="0" r="0.4em" style="fill: rgb(31, 119, 180);"></circle></g><rect class="legend-box"></rect></g></svg>
        